<svg width="16" height="16" viewBox="0 0 16 16" fill="none" xmlns="http://www.w3.org/2000/svg">
<g clip-path="url(#clip0_306_7)">
<path d="M2.064 10.4983L3.108 10.2103V5.01432L2.1 5.09832L1.212 6.16632L0.336 6.09432C0.336 5.43032 0.368 4.59432 0.432 3.58632H7.944C8.008 4.59432 8.04 5.43032 8.04 6.09432L7.176 6.16632L6.276 5.09832L5.292 5.01432V9.73032C5.292 9.92232 5.304 10.0463 5.328 10.1023C5.352 10.1583 5.42 10.2143 5.532 10.2703L6.276 10.7143L6.228 11.6743H2.124L2.064 10.4983ZM11.0191 14.4223C10.4431 14.0383 9.93109 13.5423 9.48309 12.9343L10.8151 11.6263L9.07509 7.04232C8.98709 6.82632 8.92709 6.68632 8.89509 6.62232C8.86309 6.55832 8.80309 6.47032 8.71509 6.35832L8.51109 6.09432L8.57109 5.39832H11.6431L11.7631 6.41832L11.0671 6.58632L12.0511 9.59832L13.1551 6.83832C13.1711 6.79032 13.1791 6.75432 13.1791 6.73032C13.1791 6.65832 13.1471 6.61032 13.0831 6.58632L12.5191 6.34632L12.6271 5.39832H14.9071L15.0151 6.37032L13.4791 9.71832C12.9271 10.9263 12.4711 11.8743 12.1111 12.5623C11.7511 13.2503 11.3871 13.8703 11.0191 14.4223Z" fill="black"/>
</g>
<defs>
<clipPath id="clip0_306_7">
<rect width="16" height="16" fill="white"/>
</clipPath>
</defs>
</svg>
